<?xml version="1.0" standalone="no"?>
<!DOCTYPE svg PUBLIC "-//W3C//DTD SVG 20010904//EN"
 "http://www.w3.org/TR/2001/REC-SVG-20010904/DTD/svg10.dtd">
<svg version="1.0" xmlns="http://www.w3.org/2000/svg"
 width="1096.000000pt" height="1096.000000pt" viewBox="0 0 1096.000000 1096.000000"
 preserveAspectRatio="xMidYMid meet">
<metadata>
Created by potrace 1.11, written by Peter Selinger 2001-2013
</metadata>
<g transform="translate(0.000000,1096.000000) scale(0.100000,-0.100000)"
fill="#000000" stroke="none">
<path d="M5189 10956 c-2 -2 -56 -7 -119 -10 -63 -4 -124 -9 -135 -11 -11 -2
-47 -7 -80 -10 -33 -3 -73 -7 -90 -10 -159 -22 -265 -40 -345 -57 -52 -10
-106 -22 -120 -24 -208 -40 -646 -174 -845 -259 -16 -7 -55 -23 -85 -35 -103
-42 -145 -61 -318 -147 -96 -46 -213 -107 -260 -135 -48 -28 -107 -62 -132
-76 -25 -14 -77 -47 -117 -74 -40 -26 -75 -48 -78 -48 -3 0 -11 -5 -18 -11 -7
-6 -64 -47 -128 -92 -64 -45 -134 -95 -155 -112 -67 -51 -178 -140 -190 -150
-6 -5 -40 -35 -75 -65 -730 -627 -1294 -1462 -1609 -2385 -48 -140 -109 -346
-130 -440 -7 -27 -14 -57 -16 -65 -6 -23 -64 -310 -70 -350 -3 -19 -7 -46 -10
-60 -2 -14 -7 -45 -10 -70 -3 -25 -8 -54 -10 -65 -2 -10 -6 -51 -10 -90 -3
-38 -8 -78 -9 -87 -27 -139 -27 -938 0 -1078 2 -14 6 -50 9 -80 2 -30 12 -104
21 -165 9 -60 18 -121 20 -135 2 -14 7 -38 10 -55 60 -321 145 -634 248 -915
44 -122 136 -341 149 -357 6 -7 8 -13 5 -13 -6 0 152 -318 204 -410 25 -45 93
-158 152 -255 260 -425 675 -901 1103 -1265 169 -145 441 -344 610 -447 228
-140 279 -168 474 -266 344 -173 693 -304 1065 -402 55 -15 118 -30 140 -35
89 -19 292 -59 320 -64 79 -13 255 -38 295 -42 25 -2 63 -6 85 -9 229 -27 927
-28 1087 0 12 2 52 7 88 10 36 3 76 7 90 9 14 3 57 9 95 15 39 6 86 14 105 17
45 7 178 32 210 39 14 4 39 9 55 12 28 4 165 39 310 78 346 92 841 298 1185
492 568 320 1078 741 1501 1238 19 22 36 42 39 45 14 13 184 235 242 315 98
137 207 308 288 450 28 50 55 97 60 105 42 70 179 354 230 475 34 83 69 165
77 183 28 65 143 420 177 547 58 220 112 485 132 650 3 22 7 49 9 60 2 11 7
47 10 80 3 33 7 74 10 90 27 185 27 892 0 1080 -2 17 -7 57 -10 90 -3 33 -7
71 -9 85 -3 14 -7 45 -10 70 -4 25 -8 56 -10 70 -3 14 -7 41 -10 60 -21 142
-76 386 -128 570 -16 58 -31 113 -33 123 -2 9 -7 22 -10 27 -3 5 -8 18 -10 27
-15 78 -148 423 -245 638 -14 33 -33 76 -40 95 -20 50 -112 227 -183 350 -118
207 -374 577 -507 734 -260 306 -538 583 -779 776 -25 19 -49 40 -55 45 -27
26 -252 189 -361 262 -239 160 -556 336 -813 451 -97 44 -309 127 -402 158
-41 14 -84 30 -95 35 -113 50 -673 187 -876 213 -19 3 -47 7 -64 10 -16 2 -55
8 -85 12 -30 4 -62 8 -70 9 -8 1 -55 5 -105 10 -49 4 -99 10 -110 12 -23 6
-720 14 -726 9z"/>
</g>
</svg>
